<svg width="150" height="31" viewBox="0 0 150 31" fill="none" xmlns="http://www.w3.org/2000/svg">
<g clip-path="url(#clip0_11_296)">
<path fill-rule="evenodd" clip-rule="evenodd" d="M3.96892 13.3125H7.74884C10.9618 13.3125 12.4737 14.125 12.4737 16.4375C12.4737 19.3125 9.63881 19.6875 7.62285 19.6875H3.96892V13.3125ZM0 23.0625H8.00084C12.2218 23.0625 16.3797 21.5625 16.3797 16.75C16.3797 13.9375 14.3637 11.75 11.5918 11.4375V11.375C13.8597 10.6875 15.4347 9.0625 15.4347 6.5625C15.4347 2.5625 11.9698 1 8.63083 1H0V23.0625ZM3.96892 4.375H7.24485C10.2058 4.375 11.5288 5.3125 11.5288 7.1875C11.5288 8.8125 10.2058 9.9375 7.55985 9.9375H3.96892V4.375ZM18.9626 23.0625H22.7425V0.5H18.9626V23.0625ZM25.2625 15.5625C25.2625 20.25 28.9164 23.375 33.4523 23.375C37.9882 23.375 41.6422 20.25 41.6422 15.5625C41.6422 10.875 37.9882 7.75 33.4523 7.75C28.8534 7.75 25.2625 10.875 25.2625 15.5625ZM28.9794 15.5625C28.9794 13.25 30.6174 11.0625 33.3893 11.0625C36.1613 11.0625 37.7992 13.1875 37.7992 15.5625C37.7992 17.9375 36.1613 20.0625 33.3893 20.0625C30.6804 20.0625 28.9794 17.9375 28.9794 15.5625ZM43.2801 15.5625C43.2801 20.25 46.9341 23.375 51.47 23.375C56.0059 23.375 59.6598 20.25 59.6598 15.5625C59.6598 10.875 56.0059 7.75 51.47 7.75C46.9341 7.75 43.2801 10.875 43.2801 15.5625ZM47.0601 15.5625C47.0601 13.25 48.698 11.0625 51.47 11.0625C54.2419 11.0625 55.8799 13.1875 55.8799 15.5625C55.8799 17.9375 54.2419 20.0625 51.47 20.0625C48.698 20.0625 47.0601 17.9375 47.0601 15.5625ZM61.9908 8.125H65.5817V10.4375H65.6447C66.2747 9.0625 67.7236 7.75 70.2436 7.75C72.5745 7.75 74.1495 8.625 74.9685 10.5C76.0395 8.625 77.6774 7.75 79.9454 7.75C83.9773 7.75 85.3633 10.5625 85.3633 14.125V23H81.5834V14.5625C81.5834 12.6875 81.0164 11.0625 78.8114 11.0625C76.4805 11.0625 75.5985 13 75.5985 14.9375V23H71.8186V14.125C71.8186 12.3125 71.0626 11.0625 69.2356 11.0625C66.7787 11.0625 65.7707 12.875 65.7707 14.875V23H61.9908V8.125ZM88.3242 23.0625H91.9152V20.8125H91.9782C93.0491 22.625 95.0651 23.4375 97.1441 23.4375C101.806 23.4375 104.578 20 104.578 15.625C104.578 11.1875 101.617 7.8125 97.333 7.8125C94.4981 7.8125 92.9861 9.125 92.2301 10.0625H92.1672V0.5H88.3872L88.3242 23.0625ZM100.798 15.5625C100.798 17.875 99.16 20.0625 96.3881 20.0625C93.6161 20.0625 91.9782 17.9375 91.9782 15.5625C91.9782 13.25 93.6161 11.0625 96.3881 11.0625C99.16 11.125 100.798 13.25 100.798 15.5625ZM121.525 16.875V15.875C121.525 10.6875 118.69 7.75 114.469 7.75C109.933 7.75 106.279 10.875 106.279 15.5625C106.279 20.25 109.933 23.375 114.469 23.375C116.863 23.375 119.068 22.5625 120.832 20.375L118.123 18.375C117.178 19.5 115.981 20.375 114.091 20.375C112.012 20.375 110.311 19.0625 110.059 16.8125C110.059 16.875 121.525 16.875 121.525 16.875ZM110.059 14.0625C110.311 11.9375 111.697 10.5 113.965 10.5C116.296 10.5 117.745 11.875 117.808 14.0625H110.059ZM123.982 8.125H127.761V10.5H127.824C128.643 8.8125 130.281 7.75 132.297 7.75C132.738 7.75 133.179 7.875 133.62 7.9375V11.5625C132.99 11.4375 132.423 11.3125 131.793 11.3125C128.265 11.3125 127.761 14.25 127.761 15.0625V23.0625H123.982V8.125ZM146.409 8.125V10.375H146.346C145.275 8.5625 143.259 7.75 141.18 7.75C136.518 7.75 133.746 11.1875 133.746 15.5625C133.746 19.8125 136.707 23.1875 141.243 23.1875C143.133 23.1875 145.086 22.5 146.157 21H146.22V22.0625C146.22 25 145.086 27.0625 141.432 27.0625C139.353 27.0625 137.778 26.3125 136.266 24.9375L133.998 28C136.14 29.875 138.66 30.4375 141.432 30.4375C147.291 30.4375 149.937 27 149.937 21.625V8.125H146.409ZM141.999 11.125C144.708 11.125 146.472 12.9375 146.472 15.5C146.472 18 144.771 19.875 141.999 19.875C139.479 19.875 137.589 17.9375 137.589 15.5625C137.526 12.875 139.353 11.125 141.999 11.125Z" fill="white" fill-opacity="0.4"/>
</g>
<defs>
<clipPath id="clip0_11_296">
<rect width="150" height="30" fill="white" transform="translate(0 0.5)"/>
</clipPath>
</defs>
</svg>
