<svg width="120" height="31" viewBox="0 0 120 31" fill="none" xmlns="http://www.w3.org/2000/svg">
<g clip-path="url(#clip0_11_291)">
<path d="M68.0263 10.2787C68.0263 6.77767 68.0868 3.51811 68.2685 0.5L59.0005 2.2505V3.09557L59.9091 3.2163C60.5755 3.27666 60.9995 3.51811 61.2418 3.88028C61.4841 4.30282 61.6658 4.90644 61.787 5.81187C61.9081 7.56237 62.0293 11.5463 61.9687 17.8239C61.9687 24.0412 61.9081 27.9648 61.787 29.4738C65.1186 30.1982 67.7234 30.5 69.6618 30.5C73.2963 30.5 76.1434 29.4738 78.2029 27.3612C80.2625 25.3089 81.3529 22.4115 81.3529 18.8501C81.3529 16.0131 80.5654 13.659 78.9904 11.7877C77.4154 9.9165 75.4165 9.01107 73.054 9.01107C71.479 9.01107 69.8435 9.4336 68.0263 10.2787ZM68.208 28.8702C68.0868 26.9386 67.9657 21.1439 67.9657 11.667C68.5108 11.4859 69.2378 11.3652 70.1464 11.3652C71.6002 11.3652 72.7511 12.0895 73.5992 13.5986C74.4473 15.1076 74.8713 16.9185 74.8713 19.2123C74.8713 22.0493 74.3867 24.3431 73.4175 26.2746C72.4483 28.1459 71.2367 29.1117 69.7224 29.1117C69.2378 28.9909 68.7532 28.9306 68.208 28.8702ZM24.2302 1.10362H0V2.31087L1.27208 2.43159C2.24129 2.61268 2.90762 2.97485 3.33165 3.51811C3.75568 4.12173 3.99798 5.08753 4.05856 6.41549C4.54316 12.9346 4.54316 19.0312 4.05856 24.6449C3.93741 25.9728 3.6951 26.9386 3.33165 27.5423C2.90762 28.1459 2.24129 28.508 1.27208 28.6288L0 28.8099V30.0171H15.6285V28.8099L13.9929 28.6891C13.0237 28.5684 12.3574 28.1459 11.9334 27.6026C11.5093 26.999 11.267 26.0332 11.2065 24.7052C11.0247 22.2907 10.9036 19.5141 10.9036 16.4356L14.1747 16.496C15.9313 16.5563 17.1429 17.8843 17.7486 20.5402H18.9601V10.7012H17.7486C17.1429 13.2968 15.9919 14.6247 14.1747 14.6851L10.9036 14.7455C10.9036 9.31288 11.0247 5.4497 11.2065 3.09557H15.9919C19.3841 3.09557 21.686 5.26861 23.0187 9.61469L24.4725 9.19215L24.2302 1.10362ZM21.3831 19.6952C21.3831 22.834 22.2918 25.4296 24.0485 27.4819C25.8051 29.5342 28.4099 30.5 31.681 30.5C34.952 30.5 37.6174 29.4738 39.5558 27.3612C41.4942 25.3089 42.4028 22.7133 42.4028 19.5744C42.4028 16.4356 41.4942 13.84 39.7375 11.7877C37.9808 9.73541 35.3761 8.76962 32.105 8.76962C28.8339 8.76962 26.1686 9.79577 24.2302 11.9085C22.2918 13.9608 21.3831 16.5563 21.3831 19.6952ZM34.8915 12.8139C35.6184 14.5644 35.9213 16.8581 35.9213 19.6348C35.9213 26.0332 34.5886 29.172 31.9838 29.172C30.6512 29.172 29.6214 28.2666 28.8945 26.4557C28.1676 24.6449 27.8647 22.3511 27.8647 19.6348C27.8647 13.2968 29.1974 10.1579 31.8021 10.1579C33.1348 10.0976 34.1646 11.003 34.8915 12.8139ZM86.0777 27.4819C88.0767 29.4738 90.6209 30.5 93.6497 30.5C95.5275 30.5 97.163 30.1378 98.6169 29.3531C100.071 28.6288 101.222 27.7233 102.009 26.6368L101.403 25.9125C100.071 26.9386 98.5563 27.4215 96.7996 27.4215C94.3766 27.4215 92.4987 26.6368 91.2267 25.007C89.894 23.3773 89.2882 21.3249 89.4094 18.669H102.373C102.373 15.7716 101.646 13.4175 100.131 11.5463C98.6169 9.73541 96.4967 8.82998 93.7708 8.82998C90.3786 8.82998 87.7739 9.9165 85.896 12.0292C84.0182 14.1419 83.1095 16.7374 83.1095 19.8159C83.1095 22.9547 84.0788 25.4899 86.0777 27.4819ZM90.5603 12.331C91.2267 10.8823 92.0747 10.1579 93.2256 10.1579C95.0429 10.1579 95.9515 12.4517 95.9515 17.0996L89.5305 17.2203C89.5911 15.4095 89.894 13.7797 90.5603 12.331ZM118.667 9.9165C117.032 9.19215 114.972 8.76962 112.489 8.76962C109.944 8.76962 107.945 9.4336 106.431 10.7012C104.917 11.9688 104.129 13.5382 104.129 15.4095C104.129 17.0392 104.614 18.3068 105.522 19.2123C106.431 20.1177 107.885 20.9024 109.763 21.5664C111.459 22.17 112.67 22.7736 113.276 23.3169C113.882 23.9205 114.245 24.5845 114.245 25.4899C114.245 26.335 113.942 27.1197 113.276 27.7233C112.67 28.3873 111.822 28.6891 110.732 28.6891C108.067 28.6891 106.068 26.7575 104.674 22.8944L103.645 23.1962L103.887 29.2324C106.068 30.0775 108.491 30.5 111.156 30.5C113.942 30.5 116.063 29.8964 117.638 28.6288C119.213 27.4215 120 25.671 120 23.498C120 22.0493 119.637 20.8421 118.849 19.9366C118.062 19.0312 116.79 18.2465 114.972 17.5221C112.973 16.7978 111.58 16.1338 110.853 15.5302C110.126 14.9266 109.763 14.2022 109.763 13.2968C109.763 12.3913 110.005 11.667 110.55 11.0634C111.095 10.4598 111.762 10.2183 112.61 10.2183C115.033 10.2183 116.79 11.9688 117.88 15.4095L118.91 15.1076L118.667 9.9165ZM60.3937 9.37324C59.5457 8.9507 58.6371 8.76962 57.6073 8.76962C56.5775 8.76962 55.5477 9.19215 54.3968 10.0372C53.2458 10.8823 52.3978 12.0292 51.7314 13.5986L51.792 8.76962L42.5846 10.5805V11.4256L43.4932 11.4859C44.6441 11.6066 45.3104 12.5121 45.4316 14.1419C45.7951 17.8843 45.7951 21.8682 45.4316 26.0936C45.3104 27.7233 44.6441 28.5684 43.4932 28.7495L42.5846 28.8702V30.0171H55.4266V28.8702L53.791 28.7495C52.6401 28.6288 51.9738 27.7233 51.8526 26.0936C51.4891 22.5926 51.4286 18.8501 51.7314 14.9869C52.0949 14.3833 52.8824 14.0211 54.0939 13.9004C55.3054 13.7797 56.6986 14.1419 58.1525 14.9869L60.3937 9.37324Z" fill="white" fill-opacity="0.4"/>
</g>
<defs>
<clipPath id="clip0_11_291">
<rect width="120" height="30" fill="white" transform="translate(0 0.5)"/>
</clipPath>
</defs>
</svg>
