<svg width="129" height="44" viewBox="0 0 129 44" fill="none" xmlns="http://www.w3.org/2000/svg">
<path d="M38.5 29.3333C38.5 24.9573 36.7616 20.7604 33.6673 17.6661C30.5729 14.5717 26.3761 12.8333 22 12.8333C17.6239 12.8333 13.4271 14.5717 10.3327 17.6661C7.23839 20.7604 5.5 24.9573 5.5 29.3333L14.6759 29.3333C14.6759 27.3909 15.4476 25.528 16.8211 24.1545C18.1946 22.7809 20.0575 22.0093 22 22.0093C23.9425 22.0093 25.8054 22.7809 27.1789 24.1545C28.5524 25.528 29.3241 27.3909 29.3241 29.3333H38.5Z" stroke="url(#paint0_linear_6_45)" stroke-width="2"/>
<path d="M22 12.8333L22 22" stroke="url(#paint1_linear_6_45)" stroke-width="2"/>
<path d="M33.6673 17.6655L28.1673 23.1655" stroke="url(#paint2_linear_6_45)" stroke-width="2"/>
<path d="M10.3327 17.6655L16.5003 23.8331" stroke="url(#paint3_linear_6_45)" stroke-width="2"/>
<path d="M55.988 24.512H52.844L52.34 26H50.192L53.24 17.576H55.616L58.664 26H56.492L55.988 24.512ZM55.46 22.928L54.416 19.844L53.384 22.928H55.46ZM67.1277 26H65.0757L61.6437 20.804V26H59.5917V17.576H61.6437L65.0757 22.796V17.576H67.1277V26ZM71.7711 17.576C72.6591 17.576 73.4351 17.752 74.0991 18.104C74.7631 18.456 75.2751 18.952 75.6351 19.592C76.0031 20.224 76.1871 20.956 76.1871 21.788C76.1871 22.612 76.0031 23.344 75.6351 23.984C75.2751 24.624 74.7591 25.12 74.0871 25.472C73.4231 25.824 72.6511 26 71.7711 26H68.6151V17.576H71.7711ZM71.6391 24.224C72.4151 24.224 73.0191 24.012 73.4511 23.588C73.8831 23.164 74.0991 22.564 74.0991 21.788C74.0991 21.012 73.8831 20.408 73.4511 19.976C73.0191 19.544 72.4151 19.328 71.6391 19.328H70.6671V24.224H71.6391ZM81.6298 26L79.8778 22.82H79.3858V26H77.3338V17.576H80.7778C81.4418 17.576 82.0058 17.692 82.4698 17.924C82.9418 18.156 83.2938 18.476 83.5258 18.884C83.7578 19.284 83.8738 19.732 83.8738 20.228C83.8738 20.788 83.7138 21.288 83.3938 21.728C83.0818 22.168 82.6178 22.48 82.0018 22.664L83.9458 26H81.6298ZM79.3858 21.368H80.6578C81.0338 21.368 81.3138 21.276 81.4978 21.092C81.6898 20.908 81.7858 20.648 81.7858 20.312C81.7858 19.992 81.6898 19.74 81.4978 19.556C81.3138 19.372 81.0338 19.28 80.6578 19.28H79.3858V21.368ZM89.146 26.084C88.354 26.084 87.626 25.9 86.962 25.532C86.306 25.164 85.782 24.652 85.39 23.996C85.006 23.332 84.814 22.588 84.814 21.764C84.814 20.94 85.006 20.2 85.39 19.544C85.782 18.888 86.306 18.376 86.962 18.008C87.626 17.64 88.354 17.456 89.146 17.456C89.938 17.456 90.662 17.64 91.318 18.008C91.982 18.376 92.502 18.888 92.878 19.544C93.262 20.2 93.454 20.94 93.454 21.764C93.454 22.588 93.262 23.332 92.878 23.996C92.494 24.652 91.974 25.164 91.318 25.532C90.662 25.9 89.938 26.084 89.146 26.084ZM89.146 24.212C89.818 24.212 90.354 23.988 90.754 23.54C91.162 23.092 91.366 22.5 91.366 21.764C91.366 21.02 91.162 20.428 90.754 19.988C90.354 19.54 89.818 19.316 89.146 19.316C88.466 19.316 87.922 19.536 87.514 19.976C87.114 20.416 86.914 21.012 86.914 21.764C86.914 22.508 87.114 23.104 87.514 23.552C87.922 23.992 88.466 24.212 89.146 24.212ZM104.136 17.576V26H102.084V20.948L100.2 26H98.5436L96.6476 20.936V26H94.5956V17.576H97.0196L99.3836 23.408L101.724 17.576H104.136ZM107.663 19.22V20.924H110.411V22.508H107.663V24.356H110.771V26H105.611V17.576H110.771V19.22H107.663ZM115.259 17.576C116.147 17.576 116.923 17.752 117.587 18.104C118.251 18.456 118.763 18.952 119.123 19.592C119.491 20.224 119.675 20.956 119.675 21.788C119.675 22.612 119.491 23.344 119.123 23.984C118.763 24.624 118.247 25.12 117.575 25.472C116.911 25.824 116.139 26 115.259 26H112.103V17.576H115.259ZM115.127 24.224C115.903 24.224 116.507 24.012 116.939 23.588C117.371 23.164 117.587 22.564 117.587 21.788C117.587 21.012 117.371 20.408 116.939 19.976C116.507 19.544 115.903 19.328 115.127 19.328H114.155V24.224H115.127ZM126.066 24.512H122.922L122.418 26H120.27L123.318 17.576H125.694L128.742 26H126.57L126.066 24.512ZM125.538 22.928L124.494 19.844L123.462 22.928H125.538Z" fill="white"/>
<defs>
<linearGradient id="paint0_linear_6_45" x1="22" y1="12.8333" x2="22" y2="45.8333" gradientUnits="userSpaceOnUse">
<stop stop-color="#CC59D2"/>
<stop offset="0.59375" stop-color="#00509D"/>
</linearGradient>
<linearGradient id="paint1_linear_6_45" x1="22.5" y1="12.8333" x2="22.5" y2="22" gradientUnits="userSpaceOnUse">
<stop stop-color="#CC59D2"/>
<stop offset="0.59375" stop-color="#00509D"/>
</linearGradient>
<linearGradient id="paint2_linear_6_45" x1="34.0208" y1="18.0191" x2="28.5208" y2="23.5191" gradientUnits="userSpaceOnUse">
<stop stop-color="#CC59D2"/>
<stop offset="0.59375" stop-color="#00509D"/>
</linearGradient>
<linearGradient id="paint3_linear_6_45" x1="10.6863" y1="17.312" x2="16.8538" y2="23.4795" gradientUnits="userSpaceOnUse">
<stop stop-color="#CC59D2"/>
<stop offset="0.59375" stop-color="#00509D"/>
</linearGradient>
</defs>
</svg>
